<svg id="Ebene_1" data-name="Ebene 1" xmlns="http://www.w3.org/2000/svg" viewBox="0 0 1065 160.93"><defs><style>.cls-1{fill:#ec3321;}.cls-2{fill:none;}.cls-3{fill:#00a3e2;}.cls-4{fill:#d90725;}.cls-5{fill:#f1b000;}.cls-6{fill:#003e7d;}</style></defs><path class="cls-1" d="M529,55.85V40.67a.48.48,0,0,1,.5-.46h2.37a.48.48,0,0,1,.48.46h0v5.75a.22.22,0,0,0,.21.23h3.62a.22.22,0,0,0,.24-.2V40.67a.48.48,0,0,1,.48-.46h2.39a.48.48,0,0,1,.48.46V55.85a.48.48,0,0,1-.48.46h-2.39a.48.48,0,0,1-.48-.46V50.1a.22.22,0,0,0-.21-.23h-3.62a.22.22,0,0,0-.24.2v5.78c0,.25-.33.46-.59.46h-2.25a.48.48,0,0,1-.51-.45Z"/><path class="cls-1" d="M543.74,54.75a6.46,6.46,0,0,1-1-4.19,6.33,6.33,0,0,1,1-4.18,5.31,5.31,0,0,1,8,0,6.33,6.33,0,0,1,1,4.18,6.46,6.46,0,0,1-1,4.19,5.32,5.32,0,0,1-8,0ZM549.25,53c.28-.39.38-1,.38-2.46s-.1-2.07-.38-2.46a1.72,1.72,0,0,0-1.51-.55,1.78,1.78,0,0,0-1.51.55c-.28.39-.38,1-.38,2.46s.1,2.07.38,2.46a1.72,1.72,0,0,0,1.51.55A1.69,1.69,0,0,0,549.25,53Z"/><path class="cls-1" d="M556.09,54.75A6.35,6.35,0,0,1,555,50.56a6.33,6.33,0,0,1,1.06-4.18,4.9,4.9,0,0,1,4-1.82,5.27,5.27,0,0,1,3.45,1A4.5,4.5,0,0,1,565,49a.42.42,0,0,1-.38.46h-2.23a.42.42,0,0,1-.46-.37,1.9,1.9,0,0,0-.5-1.24,1.93,1.93,0,0,0-1.34-.37,1.76,1.76,0,0,0-1.5.55c-.29.39-.39,1-.39,2.46s.1,2.07.39,2.46a1.7,1.7,0,0,0,1.5.55,2,2,0,0,0,1.32-.3c.29-.23.41-.52.52-1.35,0-.21.2-.32.46-.32h2.15A.41.41,0,0,1,565,52V52a4.55,4.55,0,0,1-1.13,3.17A5.11,5.11,0,0,1,560,56.53,4.93,4.93,0,0,1,556.09,54.75Z"/><path class="cls-1" d="M567.47,55.85V40.42a.48.48,0,0,1,.48-.48h2.15a.48.48,0,0,1,.48.46h0v4.16a.47.47,0,0,0,.41.53h0a5.92,5.92,0,0,1,2.06-.53,3.91,3.91,0,0,1,4.19,3.59,4.85,4.85,0,0,1,0,.66v7a.47.47,0,0,1-.48.46h-2.15a.48.48,0,0,1-.48-.46V49c0-1-.64-1.58-1.79-1.58s-1.84.57-1.84,1.48v6.9a.47.47,0,0,1-.48.46H568A.48.48,0,0,1,567.47,55.85Z"/><path class="cls-1" d="M579.43,52.49c0-.25.19-.41.48-.41H582c.29,0,.48.16.48.41,0,1,.62,1.47,1.89,1.47s1.77-.34,1.77-1-.53-.87-2.42-1.29c-2.61-.56-3.83-1.73-3.83-3.73s1.84-3.33,4.48-3.33,4.54,1.4,4.54,3.63a.43.43,0,0,1-.42.43h-2a.42.42,0,0,1-.48-.35v-.07c0-.71-.58-1.1-1.63-1.1-.86,0-1.41.34-1.41.9s.43.8,2.44,1.28c2.87.67,3.83,1.57,3.83,3.61,0,2.3-1.82,3.68-4.88,3.68S579.43,55,579.43,52.49Z"/><path class="cls-1" d="M592.23,54.75a6.38,6.38,0,0,1-1-4.19,6.67,6.67,0,0,1,1-4.18,4.93,4.93,0,0,1,4-1.82,5.22,5.22,0,0,1,3.44,1A4.5,4.5,0,0,1,601.13,49a.42.42,0,0,1-.38.46h-2.21a.4.4,0,0,1-.45-.34v0a1.6,1.6,0,0,0-1.88-1.56,1.75,1.75,0,0,0-1.51.55c-.29.39-.39,1-.39,2.46s.1,2.07.39,2.46a1.72,1.72,0,0,0,1.51.55,2,2,0,0,0,1.31-.3c.29-.23.41-.52.53-1.35,0-.21.19-.32.45-.32h2.2a.41.41,0,0,1,.41.41v0A4.6,4.6,0,0,1,600,55.25a5.11,5.11,0,0,1-3.78,1.33A5,5,0,0,1,592.23,54.75Z"/><path class="cls-1" d="M603.62,55.85V40.42a.47.47,0,0,1,.46-.48h2.17a.48.48,0,0,1,.48.46v4.16c0,.3.16.53.45.53a5.92,5.92,0,0,1,2.06-.53,3.91,3.91,0,0,1,4.19,3.59,4.85,4.85,0,0,1,0,.66v7a.47.47,0,0,1-.47.46h-2.16a.48.48,0,0,1-.48-.46V49c0-1-.64-1.58-1.79-1.58s-1.79.57-1.79,1.49v6.9a.48.48,0,0,1-.48.46h-2.16A.47.47,0,0,1,603.62,55.85Z"/><path class="cls-1" d="M626.1,45.27V55.85a.47.47,0,0,1-.48.46h-1.19a.56.56,0,0,1-.43-.16c-.19-.25-.31-.6-.65-.6-.57,0-1,1-2.87,1a3.9,3.9,0,0,1-4.19-3.6,3.53,3.53,0,0,1,0-.65v-7a.48.48,0,0,1,.48-.46h2.15a.48.48,0,0,1,.48.46h0v6.81c0,1,.67,1.59,1.8,1.59s1.79-.58,1.79-1.5V45.27a.48.48,0,0,1,.48-.46h2.15a.48.48,0,0,1,.48.46Z"/><path class="cls-1" d="M629.18,55.85V40.42a.48.48,0,0,1,.48-.46h2.16a.48.48,0,0,1,.48.46V55.85a.48.48,0,0,1-.48.46h-2.16A.48.48,0,0,1,629.18,55.85Z"/><path class="cls-1" d="M636,54.75A6.35,6.35,0,0,1,635,50.56,6.33,6.33,0,0,1,636,46.38a4.9,4.9,0,0,1,4-1.82c3.14,0,4.88,2,4.88,5.45v1a.47.47,0,0,1-.48.46h-6.19a.22.22,0,0,0-.24.2v0c0,1.52.62,2.21,2,2.21a1.69,1.69,0,0,0,1.84-1.11.58.58,0,0,1,.55-.39h2a.38.38,0,0,1,.42.34.32.32,0,0,1,0,.17A4.66,4.66,0,0,1,640,56.55,4.89,4.89,0,0,1,636,54.75Zm5.79-5.57c.14,0,.24-.07.24-.21a2,2,0,0,0-2-2A1.9,1.9,0,0,0,638,48.68a1.43,1.43,0,0,0,0,.29c0,.14.1.21.24.21Z"/><path class="cls-1" d="M652.72,55.85V40.67a.48.48,0,0,1,.48-.46h2.34a.48.48,0,0,1,.48.46v5.64a.11.11,0,0,0,.09.13h0c.05,0,.09,0,.16-.13l4-5.87c.08-.11.17-.23.53-.23h2.71a.5.5,0,0,1,.5.48v0a.46.46,0,0,1-.1.32l-4.78,6.58A.59.59,0,0,0,659,48a.62.62,0,0,0,.14.39l4.86,7a.76.76,0,0,1,.14.43.53.53,0,0,1-.55.52H661a.64.64,0,0,1-.62-.37l-3.93-6.16c-.07-.12-.14-.21-.21-.21s-.12,0-.12.14v6.14a.48.48,0,0,1-.48.46h-2.37a.48.48,0,0,1-.53-.42Z"/><path class="cls-1" d="M664.92,52.77c0-1.8,1.37-3.59,4.12-3.59h2.44a.22.22,0,0,0,.24-.2v-.4c0-.94-.79-1.4-1.85-1.4-.5,0-1.48.12-1.65.76-.09.39-.21.44-.64.44h-1.73a.47.47,0,0,1-.47-.46c0-1.75,1.74-3.36,4.61-3.36s4.79,1.49,4.79,4.16v7.13a.48.48,0,0,1-.48.46h-1.2a.34.34,0,0,1-.33-.16c-.1-.19-.26-.46-.55-.46a6.41,6.41,0,0,1-3.11.87C666.64,56.56,664.92,55.18,664.92,52.77Zm6.92-.37v-.55a.22.22,0,0,0-.21-.23h-2.26c-1,0-1.41.53-1.41,1.15,0,.85.72,1.22,1.58,1.22C670.78,54,671.84,53.6,671.84,52.4Z"/><path class="cls-1" d="M677.77,55.85V45.27a.47.47,0,0,1,.47-.46h1.2a.58.58,0,0,1,.5.3c.15.39.24,1,.65,1,.74,0,1-1.27,3.42-1.27h.81a.48.48,0,0,1,.48.46h0v2.16a.47.47,0,0,1-.48.46H684c-1.8,0-3.11.8-3.11,2.55v5.38a.48.48,0,0,1-.48.46h-2.16A.47.47,0,0,1,677.77,55.85Z"/><path class="cls-1" d="M687.21,55.85V40.42a.48.48,0,0,1,.48-.46h2.16a.47.47,0,0,1,.47.46V55.85a.47.47,0,0,1-.47.46h-2.16A.48.48,0,0,1,687.21,55.85Z"/><path class="cls-1" d="M692.54,52.49c0-.25.19-.41.48-.41h2.06a.44.44,0,0,1,.48.38v0c0,1,.62,1.47,1.89,1.47s1.77-.34,1.77-1-.53-.87-2.42-1.29c-2.61-.55-3.83-1.77-3.83-3.77s1.85-3.33,4.48-3.33S702,46,702,48.2a.43.43,0,0,1-.42.43h-2a.42.42,0,0,1-.48-.35V48.2c0-.71-.58-1.1-1.63-1.1-.86,0-1.41.34-1.41.9s.43.8,2.44,1.28c2.87.67,3.83,1.57,3.83,3.61,0,2.3-1.82,3.68-4.88,3.68S692.54,55,692.54,52.49Z"/><path class="cls-1" d="M704.75,55.85V45.27a.48.48,0,0,1,.48-.46h1.19a.58.58,0,0,1,.5.3c.15.39.24,1,.65,1,.74,0,1-1.27,3.42-1.27h.82a.47.47,0,0,1,.47.46v2.16a.47.47,0,0,1-.47.46H711c-1.8,0-3.11.8-3.11,2.55v5.38a.48.48,0,0,1-.48.46h-2.15a.47.47,0,0,1-.48-.46Z"/><path class="cls-1" d="M723.89,45.27V55.85a.48.48,0,0,1-.48.46h-1.2a.56.56,0,0,1-.43-.16c-.19-.25-.31-.6-.65-.6-.57,0-1,1-2.87,1A3.9,3.9,0,0,1,714.07,53a4.85,4.85,0,0,1,0-.66v-7a.48.48,0,0,1,.48-.46h2.15a.48.48,0,0,1,.48.46v6.81c0,1,.67,1.59,1.79,1.59s1.8-.58,1.8-1.5V45.27a.47.47,0,0,1,.47-.46h2.16A.48.48,0,0,1,723.89,45.27Z"/><path class="cls-1" d="M727,55.85V40.42a.48.48,0,0,1,.48-.46h2.15a.48.48,0,0,1,.48.46v4.14a.47.47,0,0,0,.41.53h0a5.92,5.92,0,0,1,2.06-.53,3.89,3.89,0,0,1,4.19,3.58,3.75,3.75,0,0,1,0,.67v7a.48.48,0,0,1-.48.46h-2.15a.47.47,0,0,1-.48-.46h0V49c0-1-.65-1.58-1.8-1.58s-1.79.57-1.79,1.49v6.9a.48.48,0,0,1-.48.46h-2.15a.47.47,0,0,1-.48-.46Z"/><path class="cls-1" d="M740.39,54.75a6.38,6.38,0,0,1-1-4.19,6.67,6.67,0,0,1,1-4.18,4.93,4.93,0,0,1,4-1.82c3.14,0,4.88,2,4.88,5.45v1a.47.47,0,0,1-.47.46h-6.2a.22.22,0,0,0-.24.2v0c0,1.52.62,2.21,2,2.21a1.72,1.72,0,0,0,1.85-1.11.55.55,0,0,1,.55-.39h2a.4.4,0,0,1,.43.35.41.41,0,0,1,0,.16,4.67,4.67,0,0,1-4.84,3.63A4.92,4.92,0,0,1,740.39,54.75Zm5.79-5.57c.14,0,.24-.07.24-.21a2,2,0,0,0-2-2,1.9,1.9,0,0,0-2.07,1.71,1.43,1.43,0,0,0,0,.29c0,.14.1.21.24.21Z"/><path class="cls-1" d="M529.2,77.1V66.18a.48.48,0,0,1,.48-.46h.57a.48.48,0,0,1,.48.46h0V77.1a3.62,3.62,0,0,0,7.23,0V66.18a.48.48,0,0,1,.48-.46H539a.48.48,0,0,1,.48.46V77.1a5,5,0,0,1-5,5h-.14a5,5,0,0,1-5.15-4.84Z"/><path class="cls-1" d="M543.17,81.36V70.78a.48.48,0,0,1,.48-.46H544a.54.54,0,0,1,.34.16c.12.21.24.46.48.46.64,0,.86-.85,3.18-.85s4,1.29,4,3.82v7.45a.47.47,0,0,1-.48.46h-.41a.47.47,0,0,1-.48-.46h0V74.11c0-1.84-1.32-2.66-3-2.66s-3,.82-3,2.66v7.25a.47.47,0,0,1-.48.46h-.45a.47.47,0,0,1-.55-.39A.15.15,0,0,1,543.17,81.36Z"/><path class="cls-1" d="M555.15,67.22V65.86a.39.39,0,0,1,.39-.37h1.38a.39.39,0,0,1,.39.37v1.36a.37.37,0,0,1-.38.36h-1.39a.37.37,0,0,1-.39-.35Zm1.32,14.6H556a.43.43,0,0,1-.48-.39V70.78a.44.44,0,0,1,.42-.46h.54a.45.45,0,0,1,.48.4V81.36a.43.43,0,0,1-.42.46S556.49,81.82,556.47,81.82Z"/><path class="cls-1" d="M563.43,81.47l-4.14-10.39a.78.78,0,0,1-.09-.37.4.4,0,0,1,.41-.39h.66a.45.45,0,0,1,.46.35l3.56,9.27a.19.19,0,0,0,.19.19.22.22,0,0,0,.22-.19l3.56-9.26a.45.45,0,0,1,.46-.35h.62a.41.41,0,0,1,.45.35v0a.78.78,0,0,1-.09.37l-4.16,10.38a.47.47,0,0,1-.45.35h-1.2A.48.48,0,0,1,563.43,81.47Z"/><path class="cls-1" d="M572.33,80.32a6.68,6.68,0,0,1-1-4.25,6.66,6.66,0,0,1,1.07-4.13,4.37,4.37,0,0,1,3.8-1.82c3,0,4.84,1.93,4.84,5v1a.48.48,0,0,1-.48.46h-7.51a.22.22,0,0,0-.24.2v0c0,2.46,1.24,3.84,3.44,3.84a3,3,0,0,0,3.21-2.16.55.55,0,0,1,.55-.39h.53a.38.38,0,0,1,.41.33.57.57,0,0,1,0,.13c-.28,2-2.17,3.45-4.64,3.45A4.45,4.45,0,0,1,572.33,80.32Zm7-5a.22.22,0,0,0,.24-.2v0c0-2.34-1.2-3.65-3.3-3.65s-3.4,1.4-3.4,3.65a.22.22,0,0,0,.21.23h6.25Z"/><path class="cls-1" d="M584.17,81.36V70.78a.48.48,0,0,1,.48-.46H585c.26,0,.4.14.48.46s.07.8.43.8c.62,0,1-1.26,3.23-1.26h.28a.48.48,0,0,1,.48.46h0v.48a.46.46,0,0,1-.46.46h-.33c-1.53,0-3.49.83-3.49,3.89v5.75a.48.48,0,0,1-.48.46h-.45a.47.47,0,0,1-.48-.46Z"/><path class="cls-1" d="M590.79,78.07a.48.48,0,0,1,.48-.46h.48a.48.48,0,0,1,.48.46c0,1.68,1.2,2.69,3.21,2.69s3.13-.74,3.13-2-.77-1.8-3.47-2.33-3.78-1.49-3.78-3.26,1.77-3.08,4.19-3.08c2.61,0,4.23,1.31,4.23,3.45a.47.47,0,0,1-.48.46h-.47a.47.47,0,0,1-.48-.46h0c0-1.47-.91-2.19-2.8-2.19-1.68,0-2.68.69-2.68,1.82s.69,1.5,3.35,2.09c2.94.67,3.83,1.48,3.83,3.48s-1.8,3.31-4.57,3.31S590.79,80.53,590.79,78.07Z"/><path class="cls-1" d="M602.54,67.22V65.86a.38.38,0,0,1,.38-.37h1.39a.38.38,0,0,1,.38.37v1.36a.36.36,0,0,1-.36.36h-1.46A.37.37,0,0,1,602.54,67.22Zm1.32,14.6h-.48a.43.43,0,0,1-.48-.37V70.78a.43.43,0,0,1,.4-.46h.56a.45.45,0,0,1,.48.4V81.36a.43.43,0,0,1-.41.47h-.07Z"/><path class="cls-1" d="M609.21,78.14V72a.22.22,0,0,0-.21-.23h-2a.47.47,0,0,1-.48-.46h0v-.39a.47.47,0,0,1,.47-.45H609a.22.22,0,0,0,.24-.2V66.64a.48.48,0,0,1,.48-.46h.48a.48.48,0,0,1,.48.46v3.57a.22.22,0,0,0,.21.23h3a.47.47,0,0,1,.48.45v.44a.48.48,0,0,1-.48.46h-3a.22.22,0,0,0-.24.2v6.15c0,1.56.57,2.32,2.27,2.32h1.22a.48.48,0,0,1,.48.46v.44a.48.48,0,0,1-.48.46h-1.22C610.43,81.82,609.21,80.78,609.21,78.14Z"/><path class="cls-1" d="M618.47,86.05a.84.84,0,0,1,.07-.35l1.68-4.37a.88.88,0,0,0,.07-.23,1.17,1.17,0,0,0-.07-.25l-4.38-9.77a.93.93,0,0,1-.1-.37.41.41,0,0,1,.43-.39h.7c.21,0,.33.07.45.35L621,79.08c0,.12.07.14.12.14s.07,0,.12-.14l3.18-8.41c.12-.28.24-.35.46-.35h.68a.41.41,0,0,1,.45.37v0a.78.78,0,0,1-.09.37l-6,15a.43.43,0,0,1-.45.35h-.53C618.61,86.42,618.47,86.28,618.47,86.05Z"/><path class="cls-1" d="M633.32,79.94c-.62-1-.83-1.84-.83-3.91s.19-3,.83-3.91a4.78,4.78,0,0,1,4-2.07,4.67,4.67,0,0,1,4,2.07c.65.94.84,1.84.84,3.91s-.19,3-.84,3.91a5,5,0,0,1-7,1.11,4.87,4.87,0,0,1-1.11-1.11Zm7-1.06a5.8,5.8,0,0,0,.43-2.85,5.8,5.8,0,0,0-.43-2.85,3.34,3.34,0,0,0-5.89,0A5.8,5.8,0,0,0,634,76a5.8,5.8,0,0,0,.43,2.85,3.34,3.34,0,0,0,5.89,0Z"/><path class="cls-1" d="M646.43,81.36V72a.22.22,0,0,0-.21-.23h-2.11a.48.48,0,0,1-.48-.46v-.39a.47.47,0,0,1,.48-.45h2.08a.23.23,0,0,0,.24-.22h0v-.42c0-2.64,1.58-4.3,4.07-4.3h.12a.48.48,0,0,1,.48.46v.37a.48.48,0,0,1-.48.46h-.08c-1.65,0-2.63,1.13-2.63,3v.42a.22.22,0,0,0,.21.23h2.75a.47.47,0,0,1,.48.44h0v.44a.47.47,0,0,1-.48.46h-2.72a.22.22,0,0,0-.24.2V81.4a.48.48,0,0,1-.48.46H647a.47.47,0,0,1-.52-.43Z"/><path class="cls-1" d="M527.89,106.94a1,1,0,0,1,0-.25l4.59-15.13a.46.46,0,0,1,.45-.35h1.2a.46.46,0,0,1,.45.35l4.55,15.15a.74.74,0,0,1,0,.25c0,.19-.17.35-.5.35h-.6a.45.45,0,0,1-.46-.35l-1.17-3.88a.43.43,0,0,0-.45-.32h-4.93a.44.44,0,0,0-.46.32l-1.17,3.86a.45.45,0,0,1-.45.35h-.6C528.05,107.31,527.89,107.15,527.89,106.94Zm7.75-5.63c.14,0,.24-.07.19-.25l-2.18-7.8c0-.09,0-.14-.09-.14h0s-.07,0-.1.14l-2.21,7.82c0,.18,0,.25.2.25Z"/><path class="cls-1" d="M541.54,111.45V96.27a.48.48,0,0,1,.48-.46h.38a.36.36,0,0,1,.36.21c.17.3.36.44.58.44.57,0,.84-.88,2.75-.88a4.17,4.17,0,0,1,3.76,1.89,7.94,7.94,0,0,1,.81,4.09,7.52,7.52,0,0,1-.81,4.09,4.15,4.15,0,0,1-3.76,1.89c-1.87,0-2.15-.69-2.66-.69-.33,0-.48.21-.48.69v3.91a.47.47,0,0,1-.47.46H542A.48.48,0,0,1,541.54,111.45Zm7.28-7a7.64,7.64,0,0,0,.36-2.85,7.46,7.46,0,0,0-.36-2.85,2.62,2.62,0,0,0-2.73-1.81,2.66,2.66,0,0,0-2.73,1.77,7.46,7.46,0,0,0-.36,2.85,7.64,7.64,0,0,0,.36,2.85,3,3,0,0,0,5.46,0Z"/><path class="cls-1" d="M553.79,111.45V96.27a.48.48,0,0,1,.48-.46h.38A.39.39,0,0,1,555,96c.17.3.36.44.57.44.58,0,.84-.88,2.76-.88a4.14,4.14,0,0,1,3.75,1.89,7.75,7.75,0,0,1,.82,4.09,7.43,7.43,0,0,1-.82,4.09,4.1,4.1,0,0,1-3.75,1.89c-1.87,0-2.16-.69-2.66-.69-.33,0-.48.21-.48.69v3.91a.47.47,0,0,1-.48.46h-.45A.48.48,0,0,1,553.79,111.45Zm7.27-7a7.64,7.64,0,0,0,.36-2.85,7.27,7.27,0,0,0-.36-2.85,2.61,2.61,0,0,0-2.72-1.81,2.66,2.66,0,0,0-2.73,1.77,7.46,7.46,0,0,0-.36,2.85,7.64,7.64,0,0,0,.36,2.85,3,3,0,0,0,5.45,0Z"/><path class="cls-1" d="M566,106.85V91.44a.47.47,0,0,1,.44-.5H567a.48.48,0,0,1,.48.46h0v15.45a.47.47,0,0,1-.48.46h-.47a.47.47,0,0,1-.5-.44Z"/><path class="cls-1" d="M570.68,92.71V91.35a.38.38,0,0,1,.38-.37h1.39a.4.4,0,0,1,.38.37v1.36a.38.38,0,0,1-.38.37h-1.39a.37.37,0,0,1-.38-.36Zm1.31,14.6h-.45a.42.42,0,0,1-.47-.38V96.27a.43.43,0,0,1,.4-.46H572a.43.43,0,0,1,.48.38v10.66a.43.43,0,0,1-.39.47Z"/><path class="cls-1" d="M576.61,105.81a6.68,6.68,0,0,1-1-4.25,6.67,6.67,0,0,1,1.1-4.16,4.41,4.41,0,0,1,3.83-1.82c3,0,4.83,1.93,4.83,5v1a.47.47,0,0,1-.48.46h-7.56a.22.22,0,0,0-.24.2v0c0,2.46,1.24,3.84,3.44,3.84a3,3,0,0,0,3.21-2.16.55.55,0,0,1,.55-.39h.48a.37.37,0,0,1,.42.32.32.32,0,0,1,0,.14c-.29,2-2.18,3.45-4.65,3.45A4.46,4.46,0,0,1,576.61,105.81Zm7-5a.22.22,0,0,0,.24-.2v0c0-2.35-1.19-3.66-3.3-3.66s-3.4,1.4-3.4,3.66a.23.23,0,0,0,.23.23h6.23Z"/><path class="cls-1" d="M588.81,105.65a7.52,7.52,0,0,1-.81-4.09,7.53,7.53,0,0,1,.81-4.09,4.16,4.16,0,0,1,3.73-1.89c1.87,0,2.16.69,2.66.69.34,0,.48-.21.48-.69V91.44a.48.48,0,0,1,.48-.46h.45a.48.48,0,0,1,.48.46h0v15.41a.47.47,0,0,1-.48.46h-.38a.37.37,0,0,1-.36-.21c-.17-.3-.36-.43-.57-.43-.58,0-.84.87-2.76.87A4.14,4.14,0,0,1,588.81,105.65Zm6.48-1.24a6.88,6.88,0,0,0,.36-2.85,7.66,7.66,0,0,0-.36-2.85,3,3,0,0,0-5.45,0,7.66,7.66,0,0,0-.36,2.85,7.23,7.23,0,0,0,.36,2.85,2.59,2.59,0,0,0,2.7,1.77A2.64,2.64,0,0,0,595.29,104.41Z"/><path class="cls-1" d="M605.1,102.71v-.37a.48.48,0,0,1,.48-.46h.62a.48.48,0,0,1,.48.46v.37a3.2,3.2,0,0,0,3.56,3.36c2.06,0,3.52-1.06,3.52-3.13s-1.58-2.8-3.93-3.45c-2.08-.55-4.29-1.7-4.29-4.46s2.43-4.09,4.82-4.09c2.68,0,4.67,1.59,4.67,4.37v.3a.48.48,0,0,1-.48.46H614a.48.48,0,0,1-.48-.46v-.3a2.79,2.79,0,0,0-2.66-2.91,3.38,3.38,0,0,0-.45,0c-1.89,0-3.18.83-3.18,2.58,0,1.93,1.89,2.67,4.07,3.27s4.14,1.81,4.14,4.64-2.49,4.6-5.15,4.6C607.3,107.54,605.1,105.88,605.1,102.71Z"/><path class="cls-1" d="M618.64,105.47a6.28,6.28,0,0,1-.84-3.91,6.3,6.3,0,0,1,.84-3.91,4.72,4.72,0,0,1,4-2.07,4.93,4.93,0,0,1,3.25,1,3.87,3.87,0,0,1,1.25,2.87.42.42,0,0,1-.38.46h-.63a.4.4,0,0,1-.45-.34v0a2.68,2.68,0,0,0-.89-2,3.51,3.51,0,0,0-2.11-.6,3.1,3.1,0,0,0-2.94,1.77,6.19,6.19,0,0,0-.43,2.85,6.17,6.17,0,0,0,.43,2.85,3.08,3.08,0,0,0,2.94,1.77,3,3,0,0,0,2.34-.85,2.69,2.69,0,0,0,.67-1.77c0-.3.24-.39.46-.39h.55a.48.48,0,0,1,.48.46,3.89,3.89,0,0,1-1,2.6,5.09,5.09,0,0,1-7.19-.36c-.11-.13-.22-.26-.32-.4Z"/><path class="cls-1" d="M629.76,92.71V91.35a.4.4,0,0,1,.38-.37h1.4a.4.4,0,0,1,.38.37v1.36a.38.38,0,0,1-.38.37h-1.4A.38.38,0,0,1,629.76,92.71Zm1.31,14.6h-.47a.43.43,0,0,1-.48-.37V96.27a.43.43,0,0,1,.4-.46h.55a.43.43,0,0,1,.48.38v10.66a.42.42,0,0,1-.4.46Z"/><path class="cls-1" d="M635.72,105.81a6.68,6.68,0,0,1-1-4.25,6.61,6.61,0,0,1,1.1-4.16,4.4,4.4,0,0,1,3.8-1.82c3,0,4.83,1.93,4.83,5v1a.46.46,0,0,1-.46.46h-7.53a.22.22,0,0,0-.24.2v0c0,2.46,1.25,3.84,3.45,3.84a3,3,0,0,0,3.2-2.16.55.55,0,0,1,.55-.39h.48a.37.37,0,0,1,.42.32.32.32,0,0,1,0,.14c-.29,2-2.18,3.45-4.64,3.45A4.44,4.44,0,0,1,635.72,105.81Zm7-5a.23.23,0,0,0,.24-.22h0c0-2.35-1.2-3.66-3.31-3.66s-3.39,1.4-3.39,3.66a.22.22,0,0,0,.21.23h6.25Z"/><path class="cls-1" d="M647.54,106.85V96.27a.48.48,0,0,1,.48-.46h.38a.54.54,0,0,1,.34.16c.12.21.24.46.48.46.64,0,.86-.85,3.18-.85s4,1.29,4,3.82v7.45a.47.47,0,0,1-.48.46h-.38a.47.47,0,0,1-.48-.46h0V99.61c0-1.84-1.32-2.67-3-2.67s-3,.83-3,2.67v7.24a.47.47,0,0,1-.48.46h-.45a.48.48,0,0,1-.58-.35A.41.41,0,0,1,647.54,106.85Z"/><path class="cls-1" d="M660.28,105.47a6.28,6.28,0,0,1-.84-3.91,6.3,6.3,0,0,1,.84-3.91,4.73,4.73,0,0,1,4-2.07,5,5,0,0,1,3.26,1,3.86,3.86,0,0,1,1.24,2.87.41.41,0,0,1-.36.46h-.64c-.22,0-.46-.11-.46-.37a2.73,2.73,0,0,0-.88-2,3.52,3.52,0,0,0-2.16-.62,3.12,3.12,0,0,0-2.94,1.77,6.19,6.19,0,0,0-.43,2.85,6.17,6.17,0,0,0,.43,2.85,3.09,3.09,0,0,0,2.94,1.77,3,3,0,0,0,2.35-.85,2.74,2.74,0,0,0,.67-1.77c0-.3.24-.39.45-.39h.55a.48.48,0,0,1,.48.46h0a3.89,3.89,0,0,1-1,2.6,5.09,5.09,0,0,1-7.19-.36c-.11-.13-.22-.26-.32-.4Z"/><path class="cls-1" d="M672.14,105.81a6.68,6.68,0,0,1-1-4.25,6.61,6.61,0,0,1,1.1-4.16,4.4,4.4,0,0,1,3.8-1.82c3,0,4.83,1.93,4.83,5v1a.46.46,0,0,1-.46.46h-7.53a.22.22,0,0,0-.24.2v0c0,2.46,1.25,3.84,3.45,3.84a3,3,0,0,0,3.2-2.16.55.55,0,0,1,.55-.39h.48a.37.37,0,0,1,.42.32.32.32,0,0,1,0,.14c-.29,2-2.18,3.45-4.64,3.45A4.49,4.49,0,0,1,672.14,105.81Zm7-5a.23.23,0,0,0,.24-.22h0c0-2.35-1.2-3.66-3.31-3.66s-3.39,1.4-3.39,3.66a.22.22,0,0,0,.21.23h6.25Z"/><path class="cls-1" d="M683.15,103.56a.48.48,0,0,1,.48-.46h.47a.48.48,0,0,1,.48.46h0c0,1.68,1.2,2.69,3.21,2.69s3.13-.73,3.13-2-.76-1.8-3.47-2.32-3.78-1.48-3.78-3.25,1.77-3.08,4.19-3.08c2.61,0,4.24,1.31,4.24,3.45a.48.48,0,0,1-.48.46h-.48a.48.48,0,0,1-.48-.46c0-1.47-.91-2.18-2.8-2.18-1.67,0-2.68.69-2.68,1.81s.7,1.5,3.35,2.1c2.94.66,3.83,1.47,3.83,3.47s-1.8,3.31-4.57,3.31S683.15,106,683.15,103.56Z"/><path class="cls-1" d="M947.35,94.94,909.81,73.22l36.1-20.6a1.83,1.83,0,0,0,.81-1.43V40.28c0-.62-.52-.78-1-.52l-45.58,26.7V41a1,1,0,0,0-1-1h-9.59a1,1,0,0,0-.95.93v65.65a.94.94,0,0,0,.94.94h9.6a1,1,0,0,0,1-.94V79.94l46.92,27.85a.67.67,0,0,0,.94-.1.69.69,0,0,0,.15-.44V96.42a1.65,1.65,0,0,0-.82-1.43"/><path class="cls-1" d="M989.38,76.47l11.72-23.53,11.65,23.57Zm52.16,30.05L1008.3,40.85A1.44,1.44,0,0,0,1007,40H996.21a1.66,1.66,0,0,0-1.39.84l-34.13,65.61a.72.72,0,0,0,.27,1,.65.65,0,0,0,.43.09h11.47a1.67,1.67,0,0,0,1.37-.85l10-19.67h33.51l9.86,19.67a1.67,1.67,0,0,0,1.37.85h11.86a.68.68,0,0,0,.75-.62.72.72,0,0,0-.07-.38"/><path class="cls-1" d="M854.4,40.94a1,1,0,0,1,.94-.95h9.6a1,1,0,0,1,.94.95v65.64a1,1,0,0,1-.94,1h-9.6a1,1,0,0,1-.94-1ZM848,68.58H819.28V40.94a1,1,0,0,0-.94-.95h-9.6a1,1,0,0,0-1,.95V68.59H779.06a1,1,0,0,0-1,.88V78a1,1,0,0,0,1,1h28.73v27.63a1,1,0,0,0,1,1h9.6a1,1,0,0,0,.94-1V78.94H848a1,1,0,0,0,.94-1V69.53a.94.94,0,0,0-.94-.94h0"/><rect class="cls-2" x="-39.16" y="-40.03" width="566.93" height="232.83"/><path class="cls-3" d="M86.34,114.74c-3.57,1.06-7.42,2.07-11.46,3V102.79c18.23-1.15,41.06-5.31,49.4-17.89C124.44,87.88,123.15,103.67,86.34,114.74ZM121.2,84H74.84v16C104.07,98.05,116.29,90.79,121.2,84Zm3.08,10.28a28.15,28.15,0,0,1-2.6,3.81c-6.42,7.92-18,14.46-34.52,19.42-3.81,1.14-8,2.21-12.28,3.18v16.71c48.26-15.31,49.4-37.64,49.4-42.3Z"/><path class="cls-3" d="M21.71,84v11.1c-.09,4.73,1.14,27,49.4,42.3V84ZM60,118.3l-8.74-4.6-8.74,4.6,1.67-9.8-7.45-8.37H47l4.31-8.74,4.31,8.73h10L63.06,103H53.84l-2.53-5.13L48.74,103H43.13l4.13,4.64-.93,5.44,4.94-2.6,4.94,2.6-.93-5.42,1.56-1.77h3.79l-2.27,2.62Z"/><path class="cls-4" d="M124.31,10.79V80.21H74.84V22Zm-10.74,45H85.69v2.86h27.88Zm0,10.47H85.69v2.87h27.88Zm0-21H85.69v2.91h27.88Zm0-10.48H85.69v2.87h27.88Z"/><path class="cls-5" d="M71.11,19.23,35.55,27.3,71.11,10.75ZM21.71,34.07V80.21h49.4V22.86Zm38.8,26.55V72H57.67V65.58l-5,3.13L46.49,64.3l-6.07,4.35-5.08-3V72H32.47V60.76l7.81,4.7L46.49,61l6.25,4.47ZM35.31,47.81l-2.84-1.7V37.66l7.81,4.69,6.21-4.45,6.25,4.47,7.77-4.85V46l-2.84,1.77v-5.3l-5,3.13-6.18-4.42-6.07,4.36-5.08-3.06Zm0,11.63-2.84-1.7V49.28L40.28,54l6.21-4.45L52.74,54l7.77-4.86v8.47l-2.84,1.77V54.06l-5,3.13-6.18-4.41-6.07,4.36-5.08-3.06Z"/><path class="cls-6" d="M192.46,40.88h-.26l-14.9,26L162.48,40.29h-.26v39.9H150.1V19.81h13.65L177.3,43.28h.17l13.37-23.47h13.74V80.19H192.46ZM241,31.26V80.19H228.13V31.26h-16V19.81H257V31.26Zm47.25,49.81c12.52,0,22.71-8.13,22.71-21.68V19.81H298.59V59.63c0,5.42-4.9,9.84-10.32,9.84h-1c-5.43,0-10.32-4.42-10.32-9.84V19.81H264.59V59.39c0,13.55,10.19,21.68,22.71,21.68ZM155.34,107.82a6.84,6.84,0,0,1-2.42-.41,4.36,4.36,0,0,1-1.85-1.34,6.28,6.28,0,0,1-1.19-2.38,14.58,14.58,0,0,1,0-7.07,6.43,6.43,0,0,1,1.19-2.38,4.26,4.26,0,0,1,1.85-1.33,6.63,6.63,0,0,1,2.42-.42,6.71,6.71,0,0,1,2.42.42,4.35,4.35,0,0,1,1.84,1.33,6.58,6.58,0,0,1,1.19,2.38,14.83,14.83,0,0,1,0,7.07,6.58,6.58,0,0,1-1.19,2.38,4.46,4.46,0,0,1-1.84,1.34A6.92,6.92,0,0,1,155.34,107.82Zm0-2.65a2.52,2.52,0,0,0,2-.77,3.39,3.39,0,0,0,.69-2.3V98.22a3.42,3.42,0,0,0-.69-2.31,2.93,2.93,0,0,0-3.93,0,3.32,3.32,0,0,0-.69,2.31v3.88a3.29,3.29,0,0,0,.69,2.3,2.53,2.53,0,0,0,1.93.77Zm10.64,2.4a2.45,2.45,0,0,1-2.89-2.8V91.86h3v13.39h1.25v2.32Zm5.45,0a3,3,0,0,1-2.22-.69,2.86,2.86,0,0,1-.67-2.11V91.86h3v13.39h1.25v2.32Zm6.51.25a5.36,5.36,0,0,1-4.37-2l1.76-1.76A3.13,3.13,0,0,0,178,105.5c1,0,1.43-.38,1.43-1.15a1,1,0,0,0-.23-.69,1.35,1.35,0,0,0-.73-.35l-1.12-.21a4.89,4.89,0,0,1-2.6-1.13,3,3,0,0,1-.8-2.27A3.31,3.31,0,0,1,175,97a4.48,4.48,0,0,1,3-.9,6,6,0,0,1,2.32.41A4.77,4.77,0,0,1,182,97.81l-1.7,1.74A3,3,0,0,0,178,98.43c-.87,0-1.3.38-1.3,1.15a.9.9,0,0,0,.24.7,1.51,1.51,0,0,0,.76.34l1.17.21a5,5,0,0,1,2.54,1.07,2.9,2.9,0,0,1,.77,2.16,3.45,3.45,0,0,1-1.13,2.77,4.76,4.76,0,0,1-3.08,1Zm10.15,0a4.31,4.31,0,0,1-3.52-1.42,8.71,8.71,0,0,1,0-8.8,5,5,0,0,1,6.16-.68,4.2,4.2,0,0,1,1.42,2.13l-2.4,1.07a2.13,2.13,0,0,0-.49-1.2,1.57,1.57,0,0,0-1.17-.4c-1.08,0-1.61.64-1.61,1.91v3.13c0,1.27.53,1.91,1.61,1.91a1.58,1.58,0,0,0,1.2-.42,2.65,2.65,0,0,0,.58-1.26l2.32,1a3.9,3.9,0,0,1-4.1,3Zm9.81,0a4.31,4.31,0,0,1-3.53-1.42,8.67,8.67,0,0,1,0-8.8,5.08,5.08,0,0,1,7.07,0,8.67,8.67,0,0,1,0,8.8,4.36,4.36,0,0,1-3.54,1.42Zm0-2.35c1.09,0,1.64-.64,1.64-1.91v-3.13c0-1.27-.55-1.91-1.64-1.91s-1.63.64-1.63,1.91v3.13c0,1.27.57,1.91,1.63,1.91ZM206,95.06a1.91,1.91,0,0,1-1.33-.39,1.42,1.42,0,0,1-.41-1.07v-.47a1.42,1.42,0,0,1,.41-1.07,2.42,2.42,0,0,1,2.66,0,1.42,1.42,0,0,1,.41,1.07v.47a1.42,1.42,0,0,1-.41,1.07,1.94,1.94,0,0,1-1.33.39Zm-1.49,1.36h3v11.15h-3Zm8.34,11.15a2.45,2.45,0,0,1-2.89-2.8V91.86h3v13.39h1.25v2.32ZM226,95.4v12.17h-3V95.4h-3.55V92.75h10.13V95.4Zm8,12.42a4.77,4.77,0,0,1-3.66-1.45A6.14,6.14,0,0,1,229,102a6.74,6.74,0,0,1,1.2-4.41,5.08,5.08,0,0,1,7.07,0,6.73,6.73,0,0,1,1.2,4.39v.72h-6.37v.7a2,2,0,0,0,.57,1.49,2.15,2.15,0,0,0,1.57.57,2.63,2.63,0,0,0,1.42-.38,4.42,4.42,0,0,0,1.07-1l1.51,1.77a5.05,5.05,0,0,1-1.73,1.45,5.36,5.36,0,0,1-2.43.51Zm-.3-9.42c-1.09,0-1.63.63-1.63,1.89V101h3.27v-.67c.05-1.27-.48-1.9-1.59-1.9Zm7.72-3.34a1.91,1.91,0,0,1-1.33-.39,1.42,1.42,0,0,1-.41-1.07v-.47a1.42,1.42,0,0,1,.41-1.07,2.42,2.42,0,0,1,2.66,0,1.42,1.42,0,0,1,.41,1.07v.47a1.42,1.42,0,0,1-.41,1.07,1.91,1.91,0,0,1-1.28.39Zm-1.49,1.36h3v11.15h-3Zm9.56,11.4a4.31,4.31,0,0,1-3.53-1.42,8.71,8.71,0,0,1,0-8.8,5.05,5.05,0,0,1,6.17-.68,4.12,4.12,0,0,1,1.41,2.13l-2.4,1.07a2.12,2.12,0,0,0-.48-1.2,1.57,1.57,0,0,0-1.17-.4c-1.08,0-1.62.64-1.62,1.91v3.13c0,1.27.54,1.91,1.62,1.91a1.58,1.58,0,0,0,1.2-.42,2.7,2.7,0,0,0,.58-1.26l2.32,1a3.9,3.9,0,0,1-4,3Zm5.77-.25V96.42h3v1.89h.34a3.13,3.13,0,0,1,.33-.83,2.7,2.7,0,0,1,.54-.68,2.1,2.1,0,0,1,.74-.46,2.6,2.6,0,0,1,1-.17,2.79,2.79,0,0,1,2.3,1,4.49,4.49,0,0,1,.8,2.82v7.58h-3v-7c0-1.32-.46-2-1.38-2a1.81,1.81,0,0,0-1.18.41,1.4,1.4,0,0,0-.49,1.16v7.41Zm15.78.25a4.77,4.77,0,0,1-3.66-1.45A6.09,6.09,0,0,1,266,102a6.74,6.74,0,0,1,1.2-4.41,5.08,5.08,0,0,1,7.07,0,6.73,6.73,0,0,1,1.2,4.39v.72h-6.37v.7a2,2,0,0,0,.57,1.49,2.11,2.11,0,0,0,1.57.57,2.62,2.62,0,0,0,1.41-.38,4.28,4.28,0,0,0,1.08-1l1.5,1.77a4.94,4.94,0,0,1-1.73,1.45,5.31,5.31,0,0,1-2.47.55Zm-.3-9.42c-1.09,0-1.63.63-1.63,1.89V101h3.27v-.67c.05-1.27-.52-1.9-1.59-1.9Zm10.7,9.42a4.34,4.34,0,0,1-3.53-1.42,8.67,8.67,0,0,1,0-8.8,5.08,5.08,0,0,1,7.07,0,8.67,8.67,0,0,1,0,8.8,4.36,4.36,0,0,1-3.49,1.42Zm0-2.35c1.09,0,1.64-.64,1.64-1.91v-3.13c0-1.27-.55-1.91-1.64-1.91s-1.63.64-1.63,1.91v3.13c0,1.27.59,1.91,1.68,1.91Zm9.5,2.1a3,3,0,0,1-2.22-.69,2.86,2.86,0,0,1-.67-2.11V91.86h3v13.39h1.25v2.32Zm10.25,0c-1.16,0-1.79-.65-1.89-1.93H299a2.5,2.5,0,0,1-.92,1.6,2.94,2.94,0,0,1-1.89.58,2.87,2.87,0,0,1-2.27-.86,3.4,3.4,0,0,1-.76-2.39,3.07,3.07,0,0,1,1.11-2.65,5.18,5.18,0,0,1,3.11-.83H299v-.86a2,2,0,0,0-.36-1.29,1.58,1.58,0,0,0-1.22-.42,2.08,2.08,0,0,0-1.24.37,3.64,3.64,0,0,0-.88,1l-1.76-1.58a5,5,0,0,1,1.66-1.56,4.83,4.83,0,0,1,2.5-.56,4.51,4.51,0,0,1,3.23,1,4.12,4.12,0,0,1,1,3v5h.91v2.32Zm-3.78-1.83a1.81,1.81,0,0,0,1.14-.37,1.42,1.42,0,0,0,.48-1.16v-1.38h-1.34c-1,0-1.53.43-1.53,1.28v.4a1.2,1.2,0,0,0,.33.94,1.35,1.35,0,0,0,1,.29Zm7.31,1.83V96.42h3v11.15Zm1.82-12.3-1.74-.82,2-4.21,2.52,1.23Zm7.75,12.55a4.34,4.34,0,0,1-3.53-1.42,8.67,8.67,0,0,1,0-8.8,5.08,5.08,0,0,1,7.07,0,8.67,8.67,0,0,1,0,8.8,4.36,4.36,0,0,1-3.49,1.42Zm0-2.35c1.09,0,1.64-.64,1.64-1.91v-3.13c0-1.27-.55-1.91-1.64-1.91s-1.63.64-1.63,1.91v3.13c.05,1.27.59,1.91,1.68,1.91ZM325,107.82a4.31,4.31,0,0,1-3.52-1.42,8.71,8.71,0,0,1,0-8.8,5.06,5.06,0,0,1,6.17-.68A4.12,4.12,0,0,1,329,99.05l-2.4,1.07a2,2,0,0,0-.49-1.2,1.53,1.53,0,0,0-1.17-.4c-1.07,0-1.61.64-1.61,1.91v3.13c0,1.27.54,1.91,1.61,1.91a1.58,1.58,0,0,0,1.2-.42,2.67,2.67,0,0,0,.59-1.26l2.31,1a3.89,3.89,0,0,1-4.05,3Zm5.78-16h3v6.45h.34a3.57,3.57,0,0,1,.35-.83,3.23,3.23,0,0,1,.54-.68,2.14,2.14,0,0,1,.75-.46,2.6,2.6,0,0,1,1-.17,2.75,2.75,0,0,1,2.28,1,4.56,4.56,0,0,1,.78,2.82v7.58h-3v-7c0-1.32-.46-2-1.38-2a1.75,1.75,0,0,0-1.18.41,1.41,1.41,0,0,0-.5,1.16v7.41h-3Zm14.82,15.71a3.07,3.07,0,0,1-2.22-.68,2.9,2.9,0,0,1-.69-2.17v-6h-1.4V96.37h.68a1,1,0,0,0,.81-.25,1.36,1.36,0,0,0,.21-.83V93.36h2.67v3h2v2.31h-2v6.52h1.74v2.32Zm11.08,0c-1.16,0-1.79-.65-1.89-1.93h-.27a2.5,2.5,0,0,1-.92,1.6,3,3,0,0,1-1.88.58,2.86,2.86,0,0,1-2.28-.86,3.4,3.4,0,0,1-.76-2.39,3.06,3.06,0,0,1,1.21-2.56,5.19,5.19,0,0,1,3.12-.83h1.61v-.86a2,2,0,0,0-.36-1.29,1.56,1.56,0,0,0-1.21-.42,2.08,2.08,0,0,0-1.24.37,3.41,3.41,0,0,0-.89,1l-1.76-1.58a5.06,5.06,0,0,1,1.66-1.56,4.83,4.83,0,0,1,2.5-.56,4.51,4.51,0,0,1,3.23,1,4.12,4.12,0,0,1,1,3v5h.91v2.32Zm-3.77-1.83a1.8,1.8,0,0,0,1.13-.37,1.42,1.42,0,0,0,.48-1.16v-1.38h-1.34c-1,0-1.53.43-1.53,1.28v.4a1.2,1.2,0,0,0,.33.94,1.39,1.39,0,0,0,1,.33Zm11.72,1.83V96.42h3v1.89h.34a3.54,3.54,0,0,1,.34-.83,2.9,2.9,0,0,1,.53-.68,2.1,2.1,0,0,1,.74-.46,2.6,2.6,0,0,1,1-.17,2.79,2.79,0,0,1,2.3,1,4.49,4.49,0,0,1,.8,2.82v7.58h-3v-7c0-1.32-.46-2-1.38-2a1.75,1.75,0,0,0-1.18.41,1.38,1.38,0,0,0-.5,1.16v7.41Zm18.72,0c-1.16,0-1.79-.65-1.89-1.93h-.27a2.5,2.5,0,0,1-.92,1.6,2.94,2.94,0,0,1-1.89.58,2.87,2.87,0,0,1-2.27-.86,3.4,3.4,0,0,1-.76-2.39,3.07,3.07,0,0,1,1.11-2.65,5.18,5.18,0,0,1,3.11-.83h1.62v-.86a2.08,2.08,0,0,0-.3-1.22,1.56,1.56,0,0,0-1.21-.42,2.11,2.11,0,0,0-1.25.37,3.64,3.64,0,0,0-.88,1l-1.76-1.58a5,5,0,0,1,1.66-1.56,4.83,4.83,0,0,1,2.5-.56,4.51,4.51,0,0,1,3.23,1,4.12,4.12,0,0,1,1,3v5H385v2.32Zm-3.78-1.83a1.81,1.81,0,0,0,1.14-.37,1.42,1.42,0,0,0,.48-1.16v-1.38h-1.3c-1,0-1.53.43-1.53,1.28v.4a1.2,1.2,0,0,0,.33.94,1.36,1.36,0,0,0,.93.33Zm21.79-5.9.17-2.49h-.34l-.91,2.36-2.39,5.41-2.44-5.37-.91-2.36h-.34l.17,2.49v7.73h-2.88V92.75h3.19l2,4.41,1.1,3.17h.21l1.11-3.17,2-4.41h3.16v14.82h-2.84Zm11.42,5.84h-.34a3.57,3.57,0,0,1-.35.83,3.23,3.23,0,0,1-.54.68,2.48,2.48,0,0,1-.74.46,2.63,2.63,0,0,1-1,.17,2.67,2.67,0,0,1-2.27-1,4.34,4.34,0,0,1-.79-2.81V96.39h3v7c0,1.31.46,2,1.38,2a1.8,1.8,0,0,0,1.17-.41,1.44,1.44,0,0,0,.5-1.16V96.41h3v11.16h-3Zm5.48,1.89V96.42h3v1.89h.34a3.57,3.57,0,0,1,.35-.83,3.23,3.23,0,0,1,.54-.68,2,2,0,0,1,.73-.46,2.9,2.9,0,0,1,2.72.41,3.44,3.44,0,0,1,.94,1.67h.27A2.9,2.9,0,0,1,430,96.17a2.56,2.56,0,0,1,2.17,1A4.74,4.74,0,0,1,433,100v7.58h-3v-7c0-1.32-.43-2-1.29-2a1.61,1.61,0,0,0-1.13.41,1.46,1.46,0,0,0-.47,1.16v7.41h-3v-7c0-1.32-.43-2-1.29-2a1.61,1.61,0,0,0-1.13.41,1.46,1.46,0,0,0-.47,1.16v7.41Zm17.07-15.71h3v6.45h.34a3.18,3.18,0,0,1,.35-.83,3.23,3.23,0,0,1,.54-.68,2.1,2.1,0,0,1,.74-.46,2.63,2.63,0,0,1,1-.17,2.72,2.72,0,0,1,2.27,1,4.57,4.57,0,0,1,.79,2.82v7.58h-3v-7c0-1.32-.46-2-1.38-2a1.74,1.74,0,0,0-1.09.44,1.38,1.38,0,0,0-.5,1.16v7.41h-3ZM454,107.53c-1.16,0-1.79-.65-1.89-1.93h-.27a2.5,2.5,0,0,1-.92,1.6,2.94,2.94,0,0,1-1.89.58,2.84,2.84,0,0,1-2.2-.81,3.4,3.4,0,0,1-.76-2.39,3.07,3.07,0,0,1,1.11-2.65,5.18,5.18,0,0,1,3.11-.83h1.62v-.86a1.92,1.92,0,0,0-.37-1.29,1.53,1.53,0,0,0-1.2-.42,2.11,2.11,0,0,0-1.25.37,3.64,3.64,0,0,0-.88,1l-1.76-1.58a5,5,0,0,1,1.66-1.56,4.83,4.83,0,0,1,2.5-.56,4.51,4.51,0,0,1,3.23,1,4.12,4.12,0,0,1,1,3v5h.91v2.32Zm-3.78-1.83a1.81,1.81,0,0,0,1.14-.37,1.42,1.42,0,0,0,.48-1.16v-1.38h-1.34c-1,0-1.53.43-1.53,1.28v.4a1.2,1.2,0,0,0,.33.94,1.37,1.37,0,0,0,1,.33Zm7.31,1.83V96.42h3v1.89h.34a3.54,3.54,0,0,1,.34-.83,2.9,2.9,0,0,1,.53-.68,2.1,2.1,0,0,1,.74-.46,2.6,2.6,0,0,1,1-.17,2.79,2.79,0,0,1,2.3,1,4.49,4.49,0,0,1,.8,2.82v7.58h-3v-7c0-1.32-.46-2-1.38-2A1.75,1.75,0,0,0,461,99a1.41,1.41,0,0,0-.5,1.16v7.41ZM160.33,122.2l.14-2.53h-.25l-1,2.49-2.89,6-2.86-6-1-2.45h-.26l.15,2.49v9.13h-2.17V116.51h2.65l2.4,5.18,1,2.93h.19l1-2.93,2.38-5.18h2.63v14.82h-2.16Zm11.27,7.3h-.27a2.67,2.67,0,0,1-2.74,2.08,2.76,2.76,0,0,1-2.29-1,4.65,4.65,0,0,1-.81-3v-7.32h2.18v7c0,1.59.63,2.39,1.87,2.39a2.22,2.22,0,0,0,1.46-.51,1.84,1.84,0,0,0,.6-1.46v-7.45h2.24v11h-2.19Zm5.16,1.83v-11H179v1.82h.25a2.66,2.66,0,0,1,2.72-2.08,2.79,2.79,0,0,1,2.3,1,4.62,4.62,0,0,1,.82,3v7.33h-2.2v-7a3,3,0,0,0-.44-1.78A1.63,1.63,0,0,0,181,122a2.12,2.12,0,0,0-1.47.52,1.83,1.83,0,0,0-.59,1.46v7.45Zm14.38.25a5.18,5.18,0,0,1-2.39-.52,5,5,0,0,1-1.76-1.51l1.41-1.29a4,4,0,0,0,1.21,1.19,3,3,0,0,0,1.55.39,2.06,2.06,0,0,0,1.33-.39,1.48,1.48,0,0,0,.47-1.17,1.56,1.56,0,0,0-.3-1,1.77,1.77,0,0,0-1.08-.51l-1-.17a4.85,4.85,0,0,1-2.47-1,2.92,2.92,0,0,1-.78-2.21,3.07,3.07,0,0,1,1-2.53,4.11,4.11,0,0,1,2.73-.82,5,5,0,0,1,2.18.44,4.72,4.72,0,0,1,1.58,1.26L193.51,123a3,3,0,0,0-1.08-.94,3,3,0,0,0-1.34-.31c-1.11,0-1.66.51-1.66,1.53a1.24,1.24,0,0,0,.34,1,2.14,2.14,0,0,0,1.08.46l1,.19a4.34,4.34,0,0,1,2.45,1A2.83,2.83,0,0,1,195,128a3.39,3.39,0,0,1-1,2.61,4.17,4.17,0,0,1-2.89,1Zm8.94-.25a2.33,2.33,0,0,1-1.67-.51,2.23,2.23,0,0,1-.52-1.66v-7.07h-1.53v-1.8h.85a.83.83,0,0,0,.71-.25,1.29,1.29,0,0,0,.18-.77v-2h2v3h2.06v1.8H200.1v7.43H202v1.81Zm8.15.25a5.17,5.17,0,0,1-1.91-.34,3.65,3.65,0,0,1-1.49-1.05,4.8,4.8,0,0,1-1-1.79,8.1,8.1,0,0,1-.35-2.59,9.12,9.12,0,0,1,.31-2.6,4.62,4.62,0,0,1,.93-1.8,3.82,3.82,0,0,1,1.44-1,5.11,5.11,0,0,1,1.9-.34,4.08,4.08,0,0,1,3.28,1.38,6.74,6.74,0,0,1,1.18,4.4v.55h-6.68v.7a2.75,2.75,0,0,0,.67,2,2.39,2.39,0,0,0,1.83.7,2.84,2.84,0,0,0,1.65-.45,3.46,3.46,0,0,0,1.09-1.25l1.28,1.21a4.41,4.41,0,0,1-4.1,2.29Zm-.13-9.81a2.17,2.17,0,0,0-1.7.67,3,3,0,0,0-.59,2v.44h4.44v-.44c0-1.77-.72-2.67-2.15-2.67Zm6.75,9.56v-11H217v2.18h.26a2.8,2.8,0,0,1,.88-1.62,2.33,2.33,0,0,1,1.64-.56h.56v2.23h-.94a3,3,0,0,0-1.78.44,1.63,1.63,0,0,0-.62,1.42v7ZM230.5,118.5v12.83h-2.25V118.5h-3.93v-2h10.11v2Zm8.08,13.08a5.17,5.17,0,0,1-1.91-.34,3.56,3.56,0,0,1-1.48-1.05,4.8,4.8,0,0,1-1-1.79,8.39,8.39,0,0,1-.35-2.59,9.13,9.13,0,0,1,.32-2.6,4.74,4.74,0,0,1,.92-1.8,3.85,3.85,0,0,1,1.45-1,5.11,5.11,0,0,1,1.9-.34,4.11,4.11,0,0,1,3.28,1.38,6.81,6.81,0,0,1,1.18,4.4v.55h-6.76v.7a2.77,2.77,0,0,0,.67,2,2.41,2.41,0,0,0,1.84.7,2.81,2.81,0,0,0,1.64-.45,3.49,3.49,0,0,0,1.1-1.25l1.27,1.21a4.4,4.4,0,0,1-4.1,2.29Zm-.12-9.81a2.17,2.17,0,0,0-1.7.67,2.93,2.93,0,0,0-.6,2v.44h4.44v-.44C240.6,122.67,239.89,121.77,238.46,121.77Zm10.38,9.81a4.09,4.09,0,0,1-3.33-1.38,8.84,8.84,0,0,1,0-8.79,4.75,4.75,0,0,1,5.88-.65,4.12,4.12,0,0,1,1.38,2l-1.81.85a2.31,2.31,0,0,0-.69-1.27,2.11,2.11,0,0,0-1.43-.43c-1.46,0-2.19.88-2.19,2.65v2.59c0,1.77.73,2.66,2.19,2.66a2.25,2.25,0,0,0,1.5-.46,2.89,2.89,0,0,0,.84-1.35l1.65.92a3.93,3.93,0,0,1-4,2.71Zm6-16H257v6.49h.26A2.66,2.66,0,0,1,260,120a2.79,2.79,0,0,1,2.3,1,4.62,4.62,0,0,1,.82,3v7.33h-2.28v-7a3.09,3.09,0,0,0-.44-1.78,1.64,1.64,0,0,0-1.41-.62,2.1,2.1,0,0,0-1.46.52,1.84,1.84,0,0,0-.6,1.46v7.45h-2.09ZM266,131.29v-11h2.18v1.82h.26a2.66,2.66,0,0,1,2.72-2.08,2.79,2.79,0,0,1,2.3,1,4.66,4.66,0,0,1,.82,3v7.33h-2.19v-7a3,3,0,0,0-.45-1.78,1.61,1.61,0,0,0-1.4-.62,2.1,2.1,0,0,0-1.46.52,1.84,1.84,0,0,0-.6,1.46v7.45Zm15,.25a4.92,4.92,0,0,1-1.9-.34,3.54,3.54,0,0,1-1.44-1,4.52,4.52,0,0,1-.93-1.79,10.64,10.64,0,0,1,0-5.2,4.56,4.56,0,0,1,.93-1.8,3.82,3.82,0,0,1,1.44-1,5.11,5.11,0,0,1,1.9-.34,5.35,5.35,0,0,1,1.89.34,3.93,3.93,0,0,1,1.45,1,4.69,4.69,0,0,1,.93,1.8,10.89,10.89,0,0,1,0,5.2,4.65,4.65,0,0,1-.93,1.79,3.71,3.71,0,0,1-1.45,1,5,5,0,0,1-1.91.38Zm0-1.82a2.15,2.15,0,0,0,1.69-.66,3.06,3.06,0,0,0,.58-2v-2.59a2.92,2.92,0,0,0-.58-2,2.49,2.49,0,0,0-3.38,0,2.87,2.87,0,0,0-.58,2v2.59a3,3,0,0,0,.58,2,2.1,2.1,0,0,0,1.67.7Zm9,1.57a2.19,2.19,0,0,1-1.65-.52,2.25,2.25,0,0,1-.51-1.63V115.62H290v13.9h1.32v1.81Zm7.24.25a4.92,4.92,0,0,1-1.9-.34,3.54,3.54,0,0,1-1.44-1,4.5,4.5,0,0,1-.92-1.79,10.64,10.64,0,0,1,0-5.2,4.74,4.74,0,0,1,.92-1.8,3.82,3.82,0,0,1,1.44-1,5.45,5.45,0,0,1,3.79,0,4.05,4.05,0,0,1,1.46,1,4.89,4.89,0,0,1,.92,1.8,10.89,10.89,0,0,1,0,5.2,4.77,4.77,0,0,1-.92,1.79,3.67,3.67,0,0,1-1.46,1,4.91,4.91,0,0,1-1.89.38Zm0-1.82a2.15,2.15,0,0,0,1.69-.66,3,3,0,0,0,.59-2v-2.59a3,3,0,0,0-.59-2,2.48,2.48,0,0,0-3.37,0,2.87,2.87,0,0,0-.59,2v2.59a3,3,0,0,0,.59,2,2.12,2.12,0,0,0,1.68.7Zm15.61,2.7a3.88,3.88,0,0,1-.27,1.51,2.53,2.53,0,0,1-.89,1,4.47,4.47,0,0,1-1.59.64,11.71,11.71,0,0,1-2.36.21,10.81,10.81,0,0,1-2.13-.18,4.13,4.13,0,0,1-1.41-.52,1.82,1.82,0,0,1-.77-.83,2.45,2.45,0,0,1-.24-1.13,1.86,1.86,0,0,1,.46-1.35,2,2,0,0,1,1.26-.62v-.36a1.68,1.68,0,0,1-.88-.64,1.72,1.72,0,0,1-.29-1,1.55,1.55,0,0,1,.48-1.2,2.38,2.38,0,0,1,1.29-.58v-.25a3.4,3.4,0,0,1-1.79-3.33,3.75,3.75,0,0,1,1-2.81,4.15,4.15,0,0,1,3-1,4.75,4.75,0,0,1,1.78.32V120a1.17,1.17,0,0,1,1-1.35,1,1,0,0,1,.35,0h1.52v1.74h-2v.49a3,3,0,0,1,1.05,1.18,4.21,4.21,0,0,1,.37,1.78,3.71,3.71,0,0,1-1,2.8,4.12,4.12,0,0,1-3,1,4.57,4.57,0,0,1-.74,0,3,3,0,0,1-.67-.11,1.09,1.09,0,0,0-.63.44,1.16,1.16,0,0,0-.21.67.71.71,0,0,0,.28.63,1.59,1.59,0,0,0,1,.22h2.65a3.84,3.84,0,0,1,2.69.78A3,3,0,0,1,312.84,132.42Zm-2.06.23a1.21,1.21,0,0,0-.4-1,2,2,0,0,0-1.36-.34h-3.4a1.49,1.49,0,0,0-.63,1.32,1.4,1.4,0,0,0,.48,1.15,2.38,2.38,0,0,0,1.62.42h1.32a3.17,3.17,0,0,0,1.81-.4,1.37,1.37,0,0,0,.62-1.15Zm-3-6.68a1.65,1.65,0,0,0,1.88-1.4,1.48,1.48,0,0,0,0-.47v-.64a1.89,1.89,0,0,0-3.78,0v.64a1.64,1.64,0,0,0,1.41,1.87A1.93,1.93,0,0,0,307.77,126Zm7.75-7.81c-.88,0-1.32-.38-1.32-1.13v-.38c0-.75.44-1.13,1.32-1.13s1.31.38,1.31,1.13V117c0,.78-.44,1.16-1.31,1.16Zm-1.09,2.1h2.19v11h-2.19Zm9,11.29a4.09,4.09,0,0,1-3.33-1.38,8.84,8.84,0,0,1,0-8.79,4.75,4.75,0,0,1,5.88-.65,4.12,4.12,0,0,1,1.38,2l-1.8.85a2.48,2.48,0,0,0-.69-1.27,2.15,2.15,0,0,0-1.44-.43c-1.45,0-2.18.88-2.18,2.65v2.59c0,1.77.73,2.66,2.18,2.66a2.25,2.25,0,0,0,1.5-.46,2.89,2.89,0,0,0,.84-1.35l1.66.92a4.29,4.29,0,0,1-1.48,2,4.24,4.24,0,0,1-2.56.69Zm13.06-.25a1.68,1.68,0,0,1-1.25-.45,1.88,1.88,0,0,1-.44-1.4h-.26a2.65,2.65,0,0,1-1,1.55,2.88,2.88,0,0,1-1.79.55,3,3,0,0,1-2.35-.83,3.34,3.34,0,0,1-.77-2.37,3.06,3.06,0,0,1,1.06-2.53,4.83,4.83,0,0,1,3.15-.85h1.83v-1a2.25,2.25,0,0,0-.47-1.56,2,2,0,0,0-1.49-.5,2.5,2.5,0,0,0-1.34.34,3,3,0,0,0-1,1.15l-1.3-1.19a4.31,4.31,0,0,1,1.5-1.53,4.2,4.2,0,0,1,2.32-.6,4.12,4.12,0,0,1,3,1,3.78,3.78,0,0,1,1,2.83v5.69h1v1.81Zm-4-1.45a2.32,2.32,0,0,0,.86-.14,2.06,2.06,0,0,0,.68-.41,2.09,2.09,0,0,0,.46-.6,1.83,1.83,0,0,0,.17-.76v-1.53h-1.72c-1.38,0-2.06.5-2.06,1.49v.51a1.28,1.28,0,0,0,.43,1.09,1.75,1.75,0,0,0,1.15.38Zm9.62,1.45a1.86,1.86,0,0,1-2.17-1.49,1.83,1.83,0,0,1,0-.66V115.62h2.19v13.9h1.32v1.81Zm10.13-14.82v9.59a4.53,4.53,0,0,0,.61,2.64,3.25,3.25,0,0,0,4.38,0,4.61,4.61,0,0,0,.61-2.64v-9.59h2.25v9.23a11.53,11.53,0,0,1-.26,2.62,4.56,4.56,0,0,1-.86,1.82,3.49,3.49,0,0,1-1.56,1.06,8.49,8.49,0,0,1-4.74,0,3.43,3.43,0,0,1-1.56-1.06,4.63,4.63,0,0,1-.86-1.82,11.53,11.53,0,0,1-.26-2.62v-9.23Zm10.87,14.82v-11h2.19v1.82h.25a2.66,2.66,0,0,1,2.72-2.08,2.79,2.79,0,0,1,2.3,1,4.64,4.64,0,0,1,.82,3v7.33H369.2v-7a3.09,3.09,0,0,0-.44-1.78,1.63,1.63,0,0,0-1.4-.62,2.12,2.12,0,0,0-1.47.52,1.8,1.8,0,0,0-.59,1.46v7.45Zm12.25-13.14c-.88,0-1.31-.38-1.31-1.13v-.38c0-.75.43-1.13,1.31-1.13s1.32.38,1.32,1.13V117c0,.78-.47,1.16-1.35,1.16Zm-1.08,2.1h2.19v11h-2.19Zm7.24,11-3.33-11h2.2L382,126l.78,3.4h.28l.76-3.4,1.62-5.75h2.14l-3.33,11Zm11.68.25a5.17,5.17,0,0,1-1.91-.34,3.65,3.65,0,0,1-1.49-1,5.1,5.1,0,0,1-1-1.79,8.39,8.39,0,0,1-.35-2.59,9.13,9.13,0,0,1,.32-2.6,4.62,4.62,0,0,1,.93-1.8,3.82,3.82,0,0,1,1.44-1A5.11,5.11,0,0,1,393,120a4.08,4.08,0,0,1,3.28,1.38,6.74,6.74,0,0,1,1.18,4.4v.55h-6.75v.7a2.75,2.75,0,0,0,.67,2,2.35,2.35,0,0,0,1.83.7,2.84,2.84,0,0,0,1.65-.45A3.56,3.56,0,0,0,396,128l1.28,1.21a4.41,4.41,0,0,1-4.1,2.29Zm-.13-9.81a2.17,2.17,0,0,0-1.7.67,3,3,0,0,0-.59,2v.44h4.44v-.44c0-1.7-.75-2.6-2.18-2.6Zm6.75,9.56v-11H402v2.18h.25a2.87,2.87,0,0,1,.89-1.62,2.33,2.33,0,0,1,1.64-.56h.55v2.23h-.93a3.12,3.12,0,0,0-1.79.44,1.62,1.62,0,0,0-.61,1.42v7Zm10.6.25A5.18,5.18,0,0,1,408,131a4.91,4.91,0,0,1-1.75-1.51l1.4-1.29a4.29,4.29,0,0,0,1.21,1.19,3,3,0,0,0,1.55.39,2,2,0,0,0,1.34-.39,1.75,1.75,0,0,0,.17-2.14,1.82,1.82,0,0,0-1.09-.51l-.95-.17a4.73,4.73,0,0,1-2.46-1,2.83,2.83,0,0,1-.79-2.21,3.07,3.07,0,0,1,1-2.53,4.14,4.14,0,0,1,2.74-.82,4.94,4.94,0,0,1,2.17.44,4.85,4.85,0,0,1,1.59,1.26L412.84,123a3.11,3.11,0,0,0-1.07-.94,3.18,3.18,0,0,0-1.35-.31c-1.11,0-1.66.51-1.66,1.53a1.24,1.24,0,0,0,.34,1,2.14,2.14,0,0,0,1.08.46l1,.19a4.34,4.34,0,0,1,2.45,1,2.84,2.84,0,0,1,.74,2.06,3.39,3.39,0,0,1-1,2.61,4.19,4.19,0,0,1-3,1Zm7.35-13.39c-.88,0-1.32-.38-1.32-1.13v-.38c0-.75.44-1.13,1.32-1.13s1.31.38,1.31,1.13V117c0,.82-.47,1.2-1.34,1.2Zm-1.09,2.1h2.16v11h-2.19Zm7.88,11a2.33,2.33,0,0,1-1.67-.51,2.23,2.23,0,0,1-.52-1.66V122h-1.53v-1.8h.85a.82.82,0,0,0,.71-.25,1.29,1.29,0,0,0,.18-.77v-2h2v3h2.06V122h-2.06v7.43h1.91v1.81Zm10.45-11h2.16l-4.33,13.61a4.29,4.29,0,0,1-.37.85,1.59,1.59,0,0,1-.49.54,1.8,1.8,0,0,1-.69.28,5.84,5.84,0,0,1-.93.08h-1.52v-1.81h2l.51-1.85-3.68-11.63h2.23l1.66,5.79.76,3.36h.24l.76-3.36Z"/></svg>