<svg xmlns="http://www.w3.org/2000/svg" viewBox="0 0 86.35 113.88"><defs><style>.a,.b,.c{fill-rule:evenodd;}.b{fill:#fff;}.c,.d{fill:#de7400;}</style></defs><title>text+vulcano</title><path class="a" d="M78.69,71.1c-24.1,5.9-44.33,8.4-72,2.54,20.8-12.07,26.84-46.45,30.58-49.32,7.81.42,7.12,3.93,13.36,2,4.77,28.48,34.53,38.53,28,44.75Z"/><path class="a" d="M50.74,20.7c-1.42-1.73,1.42-6.27,6.33-10.14S67.11,5,68.53,6.67C63.43,7.85,56.17,13,52.32,18.17a16.34,16.34,0,0,0-1.58,2.53Z"/><path class="a" d="M44.77,20.58c-1.74-.71-1.72-4.69,0-8.9s4.62-7,6.36-6.32c-3.07,2.44-5.93,8.26-6.4,13a11.1,11.1,0,0,0,0,2.23Z"/><path class="a" d="M38.64,20.13c1.1-1.8-.49-4.72-3.56-6.52s-6.43-1.81-7.53,0c2.21-1.14,6.17-.07,8.83,2.39a6.16,6.16,0,0,1,2.26,4.14Z"/><path class="b" d="M60.26,61c-.76.61-3.76-1.74-6.71-5.25s-4.72-6.85-4-7.46c1.45,3.24,5.48,8.35,9,11.4A19.16,19.16,0,0,0,60.26,61Z"/><path class="b" d="M29.48,62.69c.62.33,2.93-2.62,5.17-6.6s3.55-7.49,2.93-7.82A55.71,55.71,0,0,1,30.77,61c-.46.64-.9,1.19-1.29,1.65Z"/><path class="c" d="M19.11,14.88a3.44,3.44,0,1,1,6.87,0,3.44,3.44,0,1,1-6.87,0Z"/><path class="c" d="M52.11,4.07a2.53,2.53,0,1,1,5,0,2.53,2.53,0,1,1-5,0Z"/><path class="c" d="M69.53,7.45a2.53,2.53,0,1,1,2.53,2.48,2.5,2.5,0,0,1-2.53-2.48Z"/><path d="M23.05,112.3H16.63v-2.87h-.08a7.19,7.19,0,0,1-6.44,3.37,7.85,7.85,0,0,1-6.27-2.75q-2.38-2.74-2.38-7.68A12.39,12.39,0,0,1,4.08,94.1,8.54,8.54,0,0,1,10.94,91q4,0,5.61,2.88h.08V81.51h6.42Zm-6.3-10.12v-1.56a4.9,4.9,0,0,0-1.18-3.37,3.88,3.88,0,0,0-3.06-1.34,3.88,3.88,0,0,0-3.33,1.67,7.78,7.78,0,0,0-1.2,4.6,6.76,6.76,0,0,0,1.16,4.23,3.86,3.86,0,0,0,3.21,1.48,3.85,3.85,0,0,0,3.17-1.56A6.55,6.55,0,0,0,16.75,102.18Z"/><path d="M42,97.29a5.55,5.55,0,0,0-2.7-.63A3.91,3.91,0,0,0,36,98.19a6.76,6.76,0,0,0-1.18,4.18v9.93H28.45V91.5h6.41v3.86h.08q1.53-4.22,5.49-4.22a4.19,4.19,0,0,1,1.58.24Z"/><path d="M62.29,112.3H56.22v-3h-.08A6.77,6.77,0,0,1,50,112.8a6.49,6.49,0,0,1-4.76-1.71,6.15,6.15,0,0,1-1.74-4.58q0-6,7.17-7l5.64-.75q0-3.4-3.69-3.41a12.67,12.67,0,0,0-7.07,2.21V92.74a16.47,16.47,0,0,1,3.67-1.22A19.33,19.33,0,0,1,53.4,91q8.9,0,8.89,8.87Zm-6-8.45v-1.4l-3.77.49c-2.09.27-3.13,1.21-3.13,2.82a2.3,2.3,0,0,0,.76,1.79,2.92,2.92,0,0,0,2.06.7,3.81,3.81,0,0,0,3-1.24A4.52,4.52,0,0,0,56.26,103.85Z"/><path d="M80.93,86.43a6.33,6.33,0,0,0-2.37-.49q-3.09,0-3.09,3.35V91.5h4.75v4.73H75.47V112.3H69.08V96.23h-3.5V91.5h3.5V88.92a7.5,7.5,0,0,1,2.31-5.72A8.82,8.82,0,0,1,77.69,81a11,11,0,0,1,3.24.4Z"/><circle class="d" cx="83.64" cy="109.59" r="2.71"/></svg>